<svg width="32" height="32" viewBox="0 0 32 32" fill="none" xmlns="http://www.w3.org/2000/svg">
  <!-- Background gradient -->
  <defs>
    <linearGradient id="bgGradient" x1="0%" y1="0%" x2="100%" y2="100%">
      <stop offset="0%" style="stop-color:#3b82f6;stop-opacity:1" />
      <stop offset="100%" style="stop-color:#1e40af;stop-opacity:1" />
    </linearGradient>
    <linearGradient id="textGradient" x1="0%" y1="0%" x2="100%" y2="100%">
      <stop offset="0%" style="stop-color:#ffffff;stop-opacity:1" />
      <stop offset="100%" style="stop-color:#f1f5f9;stop-opacity:1" />
    </linearGradient>
  </defs>
  
  <!-- Main background circle -->
  <circle cx="16" cy="16" r="16" fill="url(#bgGradient)"/>
  
  <!-- News paper icon -->
  <g transform="translate(6, 8)">
    <!-- Paper base -->
    <rect x="0" y="0" width="20" height="16" rx="2" fill="url(#textGradient)" stroke="none"/>
    
    <!-- Headlines -->
    <rect x="2" y="2" width="16" height="1.5" rx="0.5" fill="#1e40af" opacity="0.8"/>
    <rect x="2" y="4.5" width="12" height="1" rx="0.5" fill="#1e40af" opacity="0.6"/>
    <rect x="2" y="6.5" width="14" height="1" rx="0.5" fill="#1e40af" opacity="0.6"/>
    
    <!-- Breaking news banner -->
    <rect x="2" y="8.5" width="16" height="2" rx="1" fill="#ef4444"/>
    <text x="10" y="9.8" font-family="Arial, sans-serif" font-size="3" font-weight="bold" text-anchor="middle" fill="white">BREAKING</text>
    
    <!-- More content lines -->
    <rect x="2" y="11.5" width="10" height="0.8" rx="0.4" fill="#1e40af" opacity="0.4"/>
    <rect x="2" y="12.8" width="8" height="0.8" rx="0.4" fill="#1e40af" opacity="0.4"/>
    <rect x="2" y="14.1" width="12" height="0.8" rx="0.4" fill="#1e40af" opacity="0.4"/>
  </g>
  
  <!-- Signal waves for live news -->
  <g transform="translate(22, 6)">
    <circle cx="0" cy="0" r="2" fill="none" stroke="#10b981" stroke-width="1" opacity="0.6"/>
    <circle cx="0" cy="0" r="4" fill="none" stroke="#10b981" stroke-width="1" opacity="0.4"/>
    <circle cx="0" cy="0" r="6" fill="none" stroke="#10b981" stroke-width="1" opacity="0.2"/>
  </g>
  
  <!-- Modern accent dot -->
  <circle cx="24" cy="24" r="2" fill="#f59e0b"/>
</svg>
