<svg width="32" height="32" viewBox="0 0 32 32" fill="none" xmlns="http://www.w3.org/2000/svg">
  <defs>
    <linearGradient id="bg" x1="0%" y1="0%" x2="100%" y2="100%">
      <stop offset="0%" style="stop-color:#1e40af;stop-opacity:1" />
      <stop offset="50%" style="stop-color:#3b82f6;stop-opacity:1" />
      <stop offset="100%" style="stop-color:#60a5fa;stop-opacity:1" />
    </linearGradient>
    <linearGradient id="accent" x1="0%" y1="0%" x2="100%" y2="100%">
      <stop offset="0%" style="stop-color:#f59e0b;stop-opacity:1" />
      <stop offset="100%" style="stop-color:#d97706;stop-opacity:1" />
    </linearGradient>
    <linearGradient id="live" x1="0%" y1="0%" x2="100%" y2="100%">
      <stop offset="0%" style="stop-color:#10b981;stop-opacity:1" />
      <stop offset="100%" style="stop-color:#059669;stop-opacity:1" />
    </linearGradient>
    
    <!-- Animation definitions -->
    <style>
      .pulse {
        animation: pulse 2s ease-in-out infinite;
      }
      .wave {
        animation: wave 3s ease-in-out infinite;
      }
      .glow {
        animation: glow 2s ease-in-out infinite alternate;
      }
      
      @keyframes pulse {
        0%, 100% { opacity: 1; }
        50% { opacity: 0.6; }
      }
      
      @keyframes wave {
        0%, 100% { transform: scale(1); opacity: 0.6; }
        50% { transform: scale(1.2); opacity: 0.3; }
      }
      
      @keyframes glow {
        0% { filter: brightness(1); }
        100% { filter: brightness(1.2); }
      }
    </style>
  </defs>
  
  <!-- Background with subtle gradient -->
  <rect width="32" height="32" rx="8" fill="url(#bg)"/>
  
  <!-- News paper/document -->
  <g transform="translate(6, 8)" class="glow">
    <!-- Paper base -->
    <rect x="0" y="0" width="20" height="16" rx="2" fill="white" opacity="0.95"/>
    
    <!-- Headlines -->
    <rect x="2" y="2" width="16" height="1.5" rx="0.75" fill="#1e40af"/>
    <rect x="2" y="4.5" width="12" height="1" rx="0.5" fill="#1e40af" opacity="0.7"/>
    <rect x="2" y="6" width="14" height="1" rx="0.5" fill="#1e40af" opacity="0.7"/>
    
    <!-- Breaking news banner with animation -->
    <rect x="2" y="8" width="16" height="2" rx="1" fill="#ef4444" class="pulse"/>
    <text x="10" y="9.2" font-family="Arial, sans-serif" font-size="2.5" font-weight="bold" text-anchor="middle" fill="white">!</text>
    
    <!-- Content lines -->
    <rect x="2" y="11" width="8" height="0.8" rx="0.4" fill="#1e40af" opacity="0.5"/>
    <rect x="2" y="12.5" width="6" height="0.8" rx="0.4" fill="#1e40af" opacity="0.5"/>
    <rect x="2" y="14" width="10" height="0.8" rx="0.4" fill="#1e40af" opacity="0.5"/>
  </g>
  
  <!-- Live indicator with pulse animation -->
  <circle cx="24" cy="8" r="2" fill="url(#live)" class="pulse"/>
  <circle cx="24" cy="8" r="1" fill="white"/>
  
  <!-- Signal waves with animation -->
  <g transform="translate(24, 8)" class="wave">
    <circle cx="0" cy="0" r="3" fill="none" stroke="#10b981" stroke-width="0.5" opacity="0.6"/>
    <circle cx="0" cy="0" r="5" fill="none" stroke="#10b981" stroke-width="0.5" opacity="0.3"/>
    <circle cx="0" cy="0" r="7" fill="none" stroke="#10b981" stroke-width="0.5" opacity="0.1"/>
  </g>
  
  <!-- Modern accent with glow -->
  <rect x="26" y="26" width="4" height="4" rx="1" fill="url(#accent)" class="glow"/>
  
  <!-- Tech indicator -->
  <g transform="translate(4, 26)">
    <rect x="0" y="0" width="4" height="4" rx="0.5" fill="none" stroke="white" stroke-width="0.5" opacity="0.6"/>
    <rect x="1" y="1" width="2" height="2" rx="0.25" fill="white" opacity="0.8"/>
  </g>
</svg>
